<svg width="13" height="13" viewBox="0 0 13 13" xmlns="http://www.w3.org/2000/svg">
<path d="M6.35835 0.95418L6.50001 0.944458C6.75173 0.944469 6.99493 1.03563 7.18464 1.20108C7.37435 1.36653 7.49772 1.59508 7.53196 1.84446L7.54168 1.98612V5.45696L11.0139 5.45835C11.2656 5.45836 11.5088 5.54952 11.6985 5.71497C11.8882 5.88042 12.0116 6.10897 12.0458 6.35835L12.0556 6.50001C12.0556 6.75173 11.9644 6.99493 11.7989 7.18464C11.6335 7.37435 11.4049 7.49772 11.1556 7.53196L11.0139 7.54168L7.54168 7.54029V11.0139C7.54167 11.2656 7.45051 11.5088 7.28506 11.6985C7.11961 11.8882 6.89106 12.0116 6.64168 12.0458L6.50001 12.0556C6.24829 12.0556 6.00509 11.9644 5.81539 11.7989C5.62568 11.6335 5.5023 11.4049 5.46807 11.1556L5.45835 11.0139V7.54029L1.98612 7.54168C1.73441 7.54167 1.49121 7.45051 1.3015 7.28506C1.11179 7.11961 0.988414 6.89106 0.95418 6.64168L0.944458 6.50001C0.944469 6.24829 1.03563 6.00509 1.20108 5.81539C1.36653 5.62568 1.59508 5.5023 1.84446 5.46807L1.98612 5.45835L5.45835 5.45696V1.98612C5.45836 1.73441 5.54952 1.49121 5.71497 1.3015C5.88042 1.11179 6.10897 0.988414 6.35835 0.95418L6.50001 0.944458L6.35835 0.95418Z" />
</svg>
