<svg width="32" height="27" viewBox="0 0 32 27" xmlns="http://www.w3.org/2000/svg">
<path fill-rule="evenodd" clip-rule="evenodd" d="M7.68698 1.85833C8.0899 1.32015 8.61236 0.883335 9.21299 0.582482C9.81362 0.281629 10.4759 0.125 11.1474 0.125H27.0079C28.1551 0.125 29.2554 0.581546 30.0666 1.3942C30.8778 2.20686 31.3335 3.30906 31.3335 4.45833V21.7917C31.3335 22.9409 30.8778 24.0431 30.0666 24.8558C29.2554 25.6685 28.1551 26.125 27.0079 26.125H11.1474C10.4759 26.125 9.81362 25.9684 9.21299 25.6675C8.61236 25.3667 8.0899 24.9298 7.68698 24.3917L1.19861 15.725C0.637056 14.9749 0.333496 14.0626 0.333496 13.125C0.333496 12.1874 0.637056 11.2751 1.19861 10.525L7.68698 1.85833ZM23.7017 9.81289C23.9644 9.54046 24.1097 9.17559 24.1064 8.79687C24.1031 8.41814 23.9515 8.05585 23.6842 7.78804C23.4168 7.52023 23.0552 7.36832 22.6771 7.36503C22.2991 7.36174 21.9349 7.50733 21.6629 7.77044L18.3568 11.0826L15.0506 7.77044C14.9176 7.63249 14.7585 7.52244 14.5825 7.44674C14.4066 7.37104 14.2174 7.33119 14.026 7.32953C13.8345 7.32786 13.6447 7.36441 13.4675 7.43704C13.2903 7.50966 13.1293 7.61692 12.9939 7.75254C12.8585 7.88816 12.7515 8.04944 12.679 8.22696C12.6065 8.40447 12.57 8.59468 12.5716 8.78647C12.5733 8.97826 12.6131 9.1678 12.6887 9.34403C12.7642 9.52026 12.8741 9.67964 13.0118 9.81289L16.318 13.125L13.0118 16.4371C12.7491 16.7095 12.6038 17.0744 12.6071 17.4531C12.6104 17.8319 12.762 18.1941 13.0293 18.462C13.2967 18.7298 13.6583 18.8817 14.0364 18.885C14.4144 18.8883 14.7786 18.7427 15.0506 18.4796L18.3568 15.1674L21.6629 18.4796C21.9349 18.7427 22.2991 18.8883 22.6771 18.885C23.0552 18.8817 23.4168 18.7298 23.6842 18.462C23.9515 18.1941 24.1031 17.8319 24.1064 17.4531C24.1097 17.0744 23.9644 16.7095 23.7017 16.4371L20.3955 13.125L23.7017 9.81289Z" />
</svg>
