<svg width="10" height="12" viewBox="0 0 10 12" xmlns="http://www.w3.org/2000/svg">
<path d="M4.76786 0.4375C6.03237 0.4375 7.24509 0.939826 8.13924 1.83397C9.03339 2.72812 9.53571 3.94084 9.53571 5.20536C9.53571 7.17925 8.03119 9.24744 5.08571 11.4565C4.99401 11.5253 4.88248 11.5625 4.76786 11.5625C4.65323 11.5625 4.5417 11.5253 4.45 11.4565C1.50452 9.24744 0 7.17925 0 5.20536C0 3.94084 0.502326 2.72812 1.39647 1.83397C2.29062 0.939826 3.50334 0.4375 4.76786 0.4375ZM4.76786 3.61607C4.34635 3.61607 3.94211 3.78351 3.64406 4.08156C3.34601 4.37961 3.17857 4.78385 3.17857 5.20536C3.17857 5.62686 3.34601 6.0311 3.64406 6.32915C3.94211 6.6272 4.34635 6.79464 4.76786 6.79464C5.18936 6.79464 5.5936 6.6272 5.89165 6.32915C6.1897 6.0311 6.35714 5.62686 6.35714 5.20536C6.35714 4.78385 6.1897 4.37961 5.89165 4.08156C5.5936 3.78351 5.18936 3.61607 4.76786 3.61607Z" />
</svg>
