<svg width="32" height="34" viewBox="0 0 32 34" xmlns="http://www.w3.org/2000/svg">
<path d="M28.3383 6.80012C28.3524 10.8366 25.906 13.5837 24.4606 15.1273C23.0152 16.6708 16.917 21.2371 15.9331 21.2371C14.9492 21.2371 9.5842 16.9113 8.0616 15.1273C6.53901 13.3433 4.33748 10.8366 4.35162 6.80011C4.36577 3.05109 7.37408 2.01298e-05 11.0567 2.11097e-05C12.0794 -0.00257699 13.0888 0.234681 14.0061 0.693276C14.9235 1.15187 15.7239 1.81939 16.345 2.64371C16.9659 1.81968 17.7662 1.15236 18.6832 0.693783C19.6003 0.235207 20.6093 -0.00222057 21.6317 2.39236e-05C25.3159 2.49039e-05 28.3247 3.05161 28.3383 6.80012Z" />
<path d="M15.9331 24.7356C13.4134 24.7356 11.3708 26.8079 11.3708 29.3643C11.3708 31.9206 13.4134 33.993 15.9331 33.993C18.4528 33.993 20.4954 31.9206 20.4954 29.3643C20.4954 26.8079 18.4528 24.7356 15.9331 24.7356Z" />
<path d="M26.456 20.1069C23.9363 20.1069 21.8937 22.1792 21.8937 24.7356C21.8937 27.2919 23.9363 29.3643 26.456 29.3643C28.9757 29.3643 31.0183 27.2919 31.0183 24.7356C31.0183 22.1792 28.9757 20.1069 26.456 20.1069Z" />
<path d="M5.46525 20.1069C2.94556 20.1069 0.902962 22.1792 0.902962 24.7356C0.902961 27.2919 2.94556 29.3643 5.46525 29.3643C7.98493 29.3643 10.0275 27.2919 10.0275 24.7356C10.0275 22.1792 7.98494 20.1069 5.46525 20.1069Z" />
</svg>
