<svg width="32" height="32" viewBox="0 0 32 32" fill="none" xmlns="http://www.w3.org/2000/svg">
<path d="M11.9783 3.88276C14.005 1.63601 17.1812 0.19043 20.75 0.19043C26.8712 0.19043 31.8333 4.44326 31.8333 9.69043C31.8333 12.8397 30.0442 15.6311 27.2923 17.3601C27.2238 17.4021 27.1541 17.4422 27.0833 17.4804V23.8929C27.0833 24.2082 26.9892 24.5162 26.813 24.7777C26.6369 25.0391 26.3867 25.242 26.0945 25.3603C25.8023 25.4787 25.4815 25.5072 25.173 25.4421C24.8646 25.377 24.5826 25.2213 24.3632 24.9949L22.5582 23.1361C24.2507 21.1348 25.2467 18.6774 25.2467 16.0222C25.2467 9.58276 19.3915 4.31343 11.9783 3.88276Z" fill="url(#paint0_linear)"/>
<path d="M13.4429 25.3433L7.63682 31.3283C7.4174 31.5546 7.13541 31.7103 6.82696 31.7754C6.51852 31.8405 6.19766 31.812 5.90548 31.6937C5.6133 31.5753 5.36311 31.3724 5.18695 31.111C5.01079 30.8496 4.91667 30.5415 4.91666 30.2263V23.8138C4.84592 23.7755 4.77623 23.7354 4.70766 23.6934C1.95424 21.9644 0.166656 19.173 0.166656 16.0238C0.166656 10.7766 5.12882 6.52376 11.25 6.52376C17.3712 6.52376 22.3333 10.7766 22.3333 16.0238C22.3333 20.3399 18.9751 23.9848 14.3755 25.1406C14.0672 25.2196 13.7562 25.2872 13.4429 25.3433Z" fill="url(#paint1_linear)"/>
<defs>
<linearGradient id="paint0_linear" x1="16" y1="0.19043" x2="16" y2="31.8095" gradientUnits="userSpaceOnUse">
<stop stop-color="#EE6BA4"/>
<stop offset="1" stop-color="#D45B90"/>
</linearGradient>
<linearGradient id="paint1_linear" x1="16" y1="0.19043" x2="16" y2="31.8095" gradientUnits="userSpaceOnUse">
<stop stop-color="#EE6BA4"/>
<stop offset="1" stop-color="#D45B90"/>
</linearGradient>
</defs>
</svg>
