<svg width="33" height="32" viewBox="0 0 33 32" xmlns="http://www.w3.org/2000/svg">
<path d="M12.6034 3.88279C14.63 1.63604 17.8062 0.19046 21.375 0.19046C27.4962 0.19046 32.4584 4.44329 32.4584 9.69046C32.4584 12.8397 30.6692 15.6311 27.9174 17.3601C27.8488 17.4021 27.7791 17.4422 27.7084 17.4805V23.893C27.7083 24.2082 27.6142 24.5163 27.4381 24.7777C27.2619 25.0391 27.0117 25.242 26.7195 25.3604C26.4274 25.4787 26.1065 25.5072 25.798 25.4421C25.4896 25.377 25.2076 25.2213 24.9882 24.995L23.1832 23.1361C24.8758 21.1348 25.8717 18.6775 25.8717 16.0222C25.8717 9.58279 20.0165 4.31346 12.6034 3.88279Z"/>
<path d="M14.0679 25.3433L8.26185 31.3283C8.04243 31.5546 7.76044 31.7103 7.45199 31.7754C7.14355 31.8405 6.82269 31.8121 6.53051 31.6937C6.23834 31.5753 5.98814 31.3725 5.81198 31.111C5.63582 30.8496 5.5417 30.5415 5.54169 30.2263V23.8138C5.47095 23.7756 5.40126 23.7354 5.33269 23.6935C2.57927 21.9645 0.791687 19.173 0.791687 16.0238C0.791687 10.7766 5.75385 6.52379 11.875 6.52379C17.9962 6.52379 22.9584 10.7766 22.9584 16.0238C22.9584 20.34 19.6001 23.9848 15.0005 25.1406C14.6923 25.2196 14.3812 25.2872 14.0679 25.3433Z"/>
</svg>
