<svg width="37" height="37" viewBox="0 0 37 37" fill="none" xmlns="http://www.w3.org/2000/svg">
<path d="M37 34.5815C37 34.8702 36.8374 35.135 36.5122 35.3756C36.187 35.6163 35.6872 35.8148 35.0127 35.9712C34.3382 36.1276 33.6457 36.272 32.9351 36.4044C32.2244 36.5367 31.3151 36.639 30.207 36.7112C29.099 36.7834 28.1354 36.8376 27.3164 36.8737C26.4974 36.9098 25.4435 36.9398 24.1548 36.9639C22.866 36.988 21.8905 37 21.228 37H15.772L12.8452 36.9639L9.68359 36.8737L6.79297 36.7112L4.06494 36.4044L1.9873 35.9712L0.487793 35.3756L0 34.5815C0.0481771 32.4637 1.37305 30.5927 3.97461 28.9683C6.57617 27.3439 9.8763 26.267 13.875 25.7376V24.5463C12.6224 23.9928 11.5384 23.2107 10.623 22.2C9.70768 21.1893 8.98503 20.0041 8.45508 18.6444C7.92513 17.2847 7.53971 15.8288 7.29883 14.2766C7.05794 12.7244 6.9375 11.0459 6.9375 9.24098C6.9375 7.70081 7.23861 6.32911 7.84082 5.12585C8.44303 3.9226 9.27409 2.95398 10.334 2.22C11.3939 1.48602 12.6104 0.93252 13.9834 0.559512C15.3564 0.186504 16.862 0 18.5 0C20.138 0 21.6436 0.186504 23.0166 0.559512C24.3896 0.93252 25.6061 1.48602 26.666 2.22C27.7259 2.95398 28.557 3.9226 29.1592 5.12585C29.7614 6.32911 30.0625 7.70081 30.0625 9.24098C30.0625 17.6637 27.75 22.7896 23.125 24.6185V25.7376C27.1237 26.267 30.4238 27.3439 33.0254 28.9683C35.627 30.5927 36.9518 32.4637 37 34.5815Z" fill="#BEBEBE"/>
</svg>
