<svg width="20" height="20" viewBox="0 0 20 20" xmlns="http://www.w3.org/2000/svg">
<path d="M10.0242 10.474C7.76506 10.474 5.84563 11.1171 4.59192 12.1251V14H15.4574V12.1251C14.2037 11.1171 12.2838 10.474 10.0242 10.474V10.474ZM20 9.51186L9.99791 5L0 9.51186L1.6666 10.2585V11.4068C1.24869 11.4915 1.24744 11.7058 1.24744 11.9607C1.24744 12.1112 1.29842 12.2875 1.39538 12.3931L0.823687 13.5909H2.86305L2.29638 12.3923C2.39166 12.2867 2.46981 12.1313 2.46981 11.9807C2.46981 11.7263 2.0845 11.491 2.0845 11.4064V10.4503L4.17402 11.3691V11.2877C5.42772 10.2204 7.63049 9.54295 10.0238 9.54295C12.418 9.54295 14.6216 10.2204 15.8753 11.2877V11.3691L20 9.51186V9.51186Z" />
</svg>
